#!OML:ASF H:\Dans Jumps\Project 1\Capture day 1\Session 1\subject.ASF
:FULLY-SPECIFIED
:DEGREES
402
root 0.531225 16.8431 3.2 0.832221 -2.55331 -1.00116
lowerback 5.92183 -0.0876542 -1.10521
upperback 3.1155 -0.166277 1.25631
thorax -0.106994 -0.105636 1.9207
lowerneck -11.3897 0.485937 -0.969394
upperneck 30.1158 0.704746 0.671003
head 11.6969 0.28191 0.508874
rclavicle -6.01324e-015 1.86858e-014
rhumerus -16.391 -7.76487 -82.4294
rradius 29.9995
rwrist 31.6224
rhand -25.6914 -28.2638
rfingers 7.12502
rthumb 0.843767 -58.2419
lclavicle -6.01324e-015 1.86858e-014
lhumerus -17.5195 -8.10024 90.0644
lradius 20.1496
lwrist 15.5891
lhand -24.648 -3.02019
lfingers 7.12502
lthumb 1.8515 26.9515
rfemur -30.2229 0.162422 20.2917
rtibia 42.8482
rfoot -10.41 -2.50346
rtoes 18.2169
lfemur -28.6476 6.0882 -18.8545
ltibia 40.2318
lfoot -12.9444 5.66431
ltoes -11.0703
403
root 0.53981 16.8997 3.23428 1.21274 -2.70422 -0.845504
lowerback 5.77193 -0.181141 -1.18137
upperback 3.0592 -0.293374 1.25525
thorax -0.0758919 -0.169902 1.96916
lowerneck -11.4423 0.586731 -0.977986
upperneck 29.969 0.871312 0.599786
head 11.6486 0.3467 0.505002
rclavicle -1.05604e-014 5.1684e-015
rhumerus -16.8527 -7.82347 -82.22
rradius 29.9047
rwrist 31.6908
rhand -25.6082 -28.2258
rfingers 7.12502
rthumb 0.924112 -58.2036
lclavicle -1.05604e-014 5.1684e-015
lhumerus -17.2538 -8.30031 89.8856
lradius 20.2221
lwrist 15.3303
lhand -24.4711 -2.46751
lfingers 7.12502
lthumb 2.0224 27.5027
rfemur -29.8319 0.512194 20.0521
rtibia 41.7599
rfoot -10.4023 -2.59362
rtoes 17.9047
lfemur -28.312 6.2992 -19.0792
ltibia 39.1064
lfoot -12.6268 5.49006
ltoes -11.0822
404
root 0.547899 16.9513 3.26819 1.56067 -2.81408 -0.683273
lowerback 5.63595 -0.283119 -1.26238
upperback 3.01254 -0.431924 1.25287
thorax -0.0416629 -0.240025 2.01922
lowerneck -11.517 0.685048 -0.988135
upperneck 29.8527 1.03573 0.525863
head 11.6172 0.410027 0.500481
rclavicle -1.20513e-014 2.0276e-014
rhumerus -17.3324 -7.90009 -81.9946
rradius 29.7759
rwrist 31.7995
rhand -25.5657 -28.2092
rfingers 7.12502
rthumb 0.965245 -58.1868
lclavicle -1.20513e-014 2.0276e-014
lhumerus -16.969 -8.50181 89.704
lradius 20.2419
lwrist 14.909
lhand -24.3907 -2.15219
lfingers 7.12502
lthumb 2.10005 27.8172
rfemur -29.4266 0.829195 19.806
rtibia 40.7446
rfoot -10.4738 -2.67056
rtoes 17.5656
lfemur -27.9839 6.45873 -19.3121
ltibia 38.036
lfoot -12.294 5.32198
ltoes -11.0214
405
root 0.555647 16.9987 3.30183 1.87502 -2.88134 -0.534649
lowerback 5.51634 -0.3929 -1.32658
upperback 2.97491 -0.579986 1.25522
thorax -0.00652717 -0.314832 2.06484
lowerneck -11.6147 0.777982 -1.00631
upperneck 29.7692 1.19404 0.454404
head 11.6035 0.469932 0.497897
rclavicle 1.54058e-015 -8.15017e-015
rhumerus -17.8288 -8.00489 -81.7486
rradius 29.6077
rwrist 31.9543
rhand -25.5641 -28.2095
rfingers 7.12502
rthumb 0.966724 -58.1871
lclavicle 1.54058e-015 -8.15017e-015
lhumerus -16.662 -8.70332 89.525
lradius 20.2124
lwrist 14.3919
lhand -24.4169 -2.04954
lfingers 7.12502
lthumb 2.0747 27.9201
rfemur -29.0299 1.10156 19.58
rtibia 39.8026
rfoot -10.5594 -2.73357
rtoes 17.2737
lfemur -27.6621 6.55643 -19.5287
ltibia 37.0238
lfoot -11.9453 5.15867
ltoes -10.8633
406
root 0.563222 17.042 3.33491 2.16439 -2.91199 -0.413933
lowerback 5.40989 -0.508119 -1.35968
upperback 2.94283 -0.733789 1.2671
thorax 0.0273438 -0.392269 2.10275
lowerneck -11.7255 0.863832 -1.01801
upperneck 29.7067 1.34572 0.367236
head 11.6012 0.525568 0.487849
rclavicle -1.82882e-014 1.51076e-014
rhumerus -18.331 -8.14514 -81.4795
rradius 29.3846
rwrist 32.157
rhand -25.5879 -28.2174
rfingers 7.12502
rthumb 0.943801 -58.195
lclavicle -1.82882e-014 1.51076e-014
lhumerus -16.3311 -8.88685 89.353
lradius 20.1155
lwrist 13.7755
lhand -24.5894 -2.28195
lfingers 7.12502
lthumb 1.90816 27.6893
rfemur -28.673 1.32887 19.3886
rtibia 38.9355
rfoot -10.5981 -2.77174
rtoes 17.1246
lfemur -27.3595 6.58931 -19.7128
ltibia 36.0765
lfoot -11.5775 5.00124
ltoes -10.5966
407
root 0.570751 17.0814 3.36762 2.42789 -2.91815 -0.331981
lowerback 5.31755 -0.624277 -1.35388
upperback 2.91841 -0.88712 1.29264
thorax 0.0610927 -0.469207 2.13252
lowerneck -11.8531 0.941053 -1.03263
upperneck 29.6638 1.48832 0.273246
head 11.6103 0.575821 0.474962
rclavicle 1.77415e-014 -6.95746e-015
rhumerus -18.8362 -8.32305 -81.1853
rradius 29.1101
rwrist 32.4016
rhand -25.6323 -28.2264
rfingers 7.12502
rthumb 0.900844 -58.2043
lclavicle 1.77415e-014 -6.95746e-015
lhumerus -15.9635 -9.02767 89.1866
lradius 19.9441
lwrist 13.0801
lhand -24.8904 -2.81459
lfingers 7.12502
lthumb 1.61739 27.159
rfemur -28.3636 1.51794 19.2417
rtibia 38.1432
rfoot -10.5533 -2.77718
rtoes 17.1147
lfemur -27.0755 6.56151 -19.8501
ltibia 35.2018
lfoot -11.1969 4.85039
ltoes -10.2029
408
root 0.578407 17.1168 3.40006 2.66941 -2.91068 -0.286618
lowerback 5.23327 -0.736095 -1.31027
upperback 2.90288 -1.0331 1.32924
thorax 0.098784 -0.542243 2.15171
lowerneck -11.999 1.00828 -1.0461
upperneck 29.6313 1.61882 0.17298
head 11.6276 0.619878 0.458298
rclavicle -1.45113e-014 6.16232e-015
rhumerus -19.3311 -8.5613 -80.8644
rradius 28.7701
rwrist 32.6945
rhand -25.6713 -28.2273
rfingers 7.12502
rthumb 0.863215 -58.2053
lclavicle -1.45113e-014 6.16232e-015
lhumerus -15.555 -9.0842 89.0196
lradius 19.7209
lwrist 12.33
lhand -25.281 -3.49989
lfingers 7.12502
lthumb 1.24019 26.4762
rfemur -28.1031 1.66958 19.1332
rtibia 37.4271
rfoot -10.4317 -2.74164
rtoes 17.2592
lfemur -26.8144 6.48137 -19.9426
ltibia 34.4081
lfoot -10.81 4.70836
ltoes -9.67261
409
root 0.586455 17.1485 3.43305 2.88441 -2.90404 -0.268334
lowerback 5.14978 -0.837535 -1.23597
upperback 2.89883 -1.16411 1.37168
thorax 0.146586 -0.607675 2.15849
lowerneck -12.1443 1.06397 -1.06473
upperneck 29.593 1.73248 0.0786324
head 11.6426 0.656598 0.442565
rclavicle -2.5842e-015 2.74323e-014
rhumerus -19.8184 -8.8666 -80.5179
rradius 28.3709
rwrist 33.0293
rhand -25.691 -28.2381
rfingers 7.12502
rthumb 0.844232 -58.2162
lclavicle -2.5842e-015 2.74323e-014
lhumerus -15.0946 -9.02088 88.8458
lradius 19.4584
lwrist 11.5593
lhand -25.6388 -4.1152
lfingers 7.12502
lthumb 0.894589 25.8627
rfemur -27.8736 1.77863 19.0519
rtibia 36.7865
rfoot -10.2647 -2.65943
rtoes 17.5023
lfemur -26.5657 6.36521 -20.001
ltibia 33.6976
lfoot -10.4263 4.58131
ltoes -9.00357
410
root 0.594755 17.1762 3.46639 3.07305 -2.90286 -0.268116
lowerback 5.07123 -0.924948 -1.14201
upperback 2.90481 -1.2759 1.41518
thorax 0.200532 -0.663389 2.15409
lowerneck -12.2867 1.10823 -1.08237
upperneck 29.5446 1.82729 -0.0079383
head 11.6533 0.686065 0.427049
rclavicle -8.84592e-015 1.59028e-014
rhumerus -20.2852 -9.27583 -80.1442
rradius 27.8897
rwrist 33.428
rhand -25.6853 -28.2539
rfingers 7.12502
rthumb 0.849678 -58.2319
lclavicle -8.84592e-015 1.59028e-014
lhumerus -14.592 -8.81547 88.6614
lradius 19.1706
lwrist 10.7591
lhand -25.9405 -4.65694
lfingers 7.12502
lthumb 0.603167 25.3219
rfemur -27.6633 1.83819 18.9931
rtibia 36.2196
rfoot -10.0833 -2.53879
rtoes 17.7621
lfemur -26.3281 6.22411 -20.0347
ltibia 33.0689
lfoot -10.05 4.47681
ltoes -8.22115
411
root 0.603219 17.2007 3.50102 3.2274 -2.91384 -0.268511
lowerback 4.99168 -0.995007 -1.04597
upperback 2.92386 -1.36485 1.45235
thorax 0.267064 -0.707781 2.14054
lowerneck -12.4113 1.14014 -1.10819
upperneck 29.4764 1.89903 -0.0707879
head 11.6523 0.707534 0.418454
rclavicle -1.09332e-014 2.26615e-014
rhumerus -20.7496 -9.77089 -79.7458
rradius 27.3558
rwrist 33.8698
rhand -25.65 -28.286
rfingers 7.12502
rthumb 0.883747 -58.2639
lclavicle -1.09332e-014 2.26615e-014
lhumerus -14.0507 -8.43059 88.4637
lradius 18.9072
lwrist 9.9897
lhand -26.0625 -4.81788
lfingers 7.12502
lthumb 0.485338 25.1613
rfemur -27.4474 1.84544 18.9416
rtibia 35.7195
rfoot -9.92368 -2.38355
rtoes 18.0146
lfemur -26.0823 6.07305 -20.0621
ltibia 32.5129
lfoot -9.68844 4.40701
ltoes -7.36294
412
root 0.611448 17.2222 3.53629 3.35077 -2.93503 -0.264109
lowerback 4.915 -1.04815 -0.956859
upperback 2.95288 -1.43193 1.48022
thorax 0.341046 -0.741318 2.12006
lowerneck -12.5168 1.15939 -1.13559
upperneck 29.3919 1.94567 -0.110529
head 11.6408 0.720767 0.415109
rclavicle 2.43014e-014 2.78299e-015
rhumerus -21.2028 -10.3774 -79.3248
rradius 26.7557
rwrist 34.3832
rhand -25.5955 -28.3245
rfingers 7.12502
rthumb 0.936406 -58.3022
lclavicle 2.43014e-014 2.78299e-015
lhumerus -13.4926 -7.9202 88.2652
lradius 18.6341
lwrist 9.17473
lhand -26.1793 -4.95343
lfingers 7.12502
lthumb 0.37259 25.026
rfemur -27.2257 1.80829 18.8938
rtibia 35.2786
rfoot -9.78941 -2.20629
rtoes 18.281
lfemur -25.8302 5.92455 -20.0894
ltibia 32.0194
lfoot -9.34351 4.37314
ltoes -6.49203
413
root 0.618971 17.2413 3.57251 3.44161 -2.96524 -0.253863
lowerback 4.83905 -1.08487 -0.881551
upperback 2.99098 -1.47803 1.49893
thorax 0.423055 -0.764529 2.09677
lowerneck -12.6047 1.16704 -1.1655
upperneck 29.302 1.96853 -0.125191
head 11.6235 0.72638 0.418122
rclavicle -1.39646e-014 1.27222e-014
rhumerus -21.6519 -11.106 -78.8752
rradius 26.0916
rwrist 34.9943
rhand -25.5335 -28.3565
rfingers 7.12502
rthumb 0.996265 -58.334
lclavicle -1.39646e-014 1.27222e-014
lhumerus -12.93 -7.31267 88.0729
lradius 18.3671
lwrist 8.36068
lhand -26.3461 -5.11266
lfingers 7.12502
lthumb 0.211488 24.867
rfemur -26.99 1.74708 18.8493
rtibia 34.8848
rfoot -9.68239 -2.02007
rtoes 18.4936
lfemur -25.5624 5.79081 -20.1164
ltibia 31.5759
lfoot -9.02515 4.37309
ltoes -5.65593
